<svg xmlns="http://www.w3.org/2000/svg" width="40" height="40" viewBox="0 0 40 40">
    <path d="M18.47,38.91a.14.14,0,0,1-.13-.12l-1-6.43a1,1,0,0,0-.72-.8,12.13,12.13,0,0,1-2.41-1,1,1,0,0,0-.49-.12,1,1,0,0,0-.6.19L7.89,34.45l-.1,0a.19.19,0,0,1-.1,0l-2.2-2.21a.12.12,0,0,1,0-.17L9.3,26.82a1,1,0,0,0,.07-1.08,12.13,12.13,0,0,1-1-2.41,1,1,0,0,0-.82-.72l-6.39-1A.14.14,0,0,1,1,21.48V18.37a.12.12,0,0,1,.11-.13l6.43-1a1,1,0,0,0,.81-.72,12.09,12.09,0,0,1,1-2.41A1,1,0,0,0,9.29,13L5.47,7.78a.14.14,0,0,1,0-.19l2.2-2.21a.16.16,0,0,1,.1,0l.1,0,5.24,3.8a1,1,0,0,0,.59.2,1.05,1.05,0,0,0,.49-.13,12.13,12.13,0,0,1,2.41-1,1,1,0,0,0,.72-.81l1-6.4c0-.09.06-.14.13-.14h3.12a.13.13,0,0,1,.13.12l1,6.42a1,1,0,0,0,.72.81,11.8,11.8,0,0,1,2.4,1,1.11,1.11,0,0,0,.5.12,1,1,0,0,0,.59-.19l5.22-3.83.1,0,.1,0,2.2,2.2a.14.14,0,0,1,0,.18L30.73,13a1,1,0,0,0-.06,1.08,12.09,12.09,0,0,1,1,2.41,1,1,0,0,0,.82.72l6.4,1a.14.14,0,0,1,.14.13v3.12a.13.13,0,0,1-.12.13l-6.43,1a1,1,0,0,0-.81.72,12.09,12.09,0,0,1-1,2.41,1,1,0,0,0,.07,1.08L34.56,32a.14.14,0,0,1,0,.2l-2.2,2.2a.1.1,0,0,1-.09,0l-.1,0-5.24-3.81a1.07,1.07,0,0,0-.6-.19,1,1,0,0,0-.49.13,12.25,12.25,0,0,1-2.4,1,1,1,0,0,0-.72.82l-1,6.4a.14.14,0,0,1-.14.14ZM20,11A8.93,8.93,0,1,0,29,19.91,8.94,8.94,0,0,0,20,11Z"
          fill="#0092cf"/>
    <path d="M21.24,1.41l1,6.12a1.52,1.52,0,0,0,1.08,1.21,12.23,12.23,0,0,1,2.3.95,1.48,1.48,0,0,0,.74.19,1.5,1.5,0,0,0,.89-.29l5-3.65L34,7.7l-3.64,5a1.47,1.47,0,0,0-.1,1.61,11.94,11.94,0,0,1,.95,2.31A1.52,1.52,0,0,0,32.4,17.7l6.12.95v2.49l-6.13,1a1.5,1.5,0,0,0-1.21,1.07,11.35,11.35,0,0,1-.95,2.31,1.53,1.53,0,0,0,.1,1.62l3.66,5-1.76,1.76-5-3.64a1.5,1.5,0,0,0-.88-.29,1.6,1.6,0,0,0-.74.19,11,11,0,0,1-2.3.95,1.53,1.53,0,0,0-1.08,1.22l-.94,6.12H18.79l-1-6.12a1.48,1.48,0,0,0-1.08-1.21,11.63,11.63,0,0,1-2.3-1,1.58,1.58,0,0,0-.73-.18,1.48,1.48,0,0,0-.89.29l-5,3.65L6.07,32.12l3.64-5a1.51,1.51,0,0,0,.1-1.61,12,12,0,0,1-1-2.31,1.52,1.52,0,0,0-1.22-1.08l-6.11-.94V18.68l6.12-1a1.5,1.5,0,0,0,1.21-1.07,11.12,11.12,0,0,1,1-2.31,1.53,1.53,0,0,0-.1-1.62L6,7.72,7.8,6l5,3.64a1.5,1.5,0,0,0,.89.29,1.56,1.56,0,0,0,.73-.19,11.72,11.72,0,0,1,2.31-1,1.51,1.51,0,0,0,1.07-1.22l1-6.11h2.48M20,29.34a9.43,9.43,0,1,0-9.44-9.43A9.44,9.44,0,0,0,20,29.34M8,5.74H8M21.56.41H18.44a.64.64,0,0,0-.63.56l-1,6.4a.49.49,0,0,1-.37.41,13.06,13.06,0,0,0-2.5,1,.47.47,0,0,1-.25.07.54.54,0,0,1-.3-.1L8.16,5a.67.67,0,0,0-.39-.14A.64.64,0,0,0,7.32,5L5.11,7.23a.65.65,0,0,0,0,.85L8.89,13.3a.5.5,0,0,1,0,.55,12.85,12.85,0,0,0-1,2.51.51.51,0,0,1-.41.36l-6.4,1a.62.62,0,0,0-.56.63v3.11a.62.62,0,0,0,.56.63l6.4,1a.5.5,0,0,1,.41.37,12.88,12.88,0,0,0,1,2.51.48.48,0,0,1,0,.54L5.09,31.76a.64.64,0,0,0,0,.85l2.2,2.2a.65.65,0,0,0,.45.19.67.67,0,0,0,.4-.14L13.41,31a.53.53,0,0,1,.3-.09A.57.57,0,0,1,14,31a13.06,13.06,0,0,0,2.5,1,.48.48,0,0,1,.37.4c.21,1.34,1,6.41,1,6.41a.62.62,0,0,0,.62.56h3.12a.63.63,0,0,0,.63-.57l1-6.39a.52.52,0,0,1,.37-.42,12.18,12.18,0,0,0,2.5-1,.48.48,0,0,1,.26-.07.46.46,0,0,1,.29.1l5.24,3.8a.61.61,0,0,0,.4.14.62.62,0,0,0,.44-.18l2.21-2.21a.62.62,0,0,0,0-.84l-3.82-5.22a.5.5,0,0,1,0-.55,12.26,12.26,0,0,0,1-2.51.53.53,0,0,1,.41-.37l6.4-1a.65.65,0,0,0,.57-.63V18.33A.65.65,0,0,0,39,17.7l-6.4-1a.53.53,0,0,1-.41-.37,12.88,12.88,0,0,0-1-2.51.54.54,0,0,1,0-.55l3.81-5.24a.64.64,0,0,0,0-.84L32.69,5a.6.6,0,0,0-.45-.19.62.62,0,0,0-.39.14L26.62,8.78a.45.45,0,0,1-.29.1.58.58,0,0,1-.26-.06,12.54,12.54,0,0,0-2.5-1,.51.51,0,0,1-.37-.4L22.19,1a.64.64,0,0,0-.63-.56ZM20,28.34a8.43,8.43,0,1,1,8.43-8.43A8.45,8.45,0,0,1,20,28.34Z"
          fill="#004d76"/>
    <path d="M20,29.12a19,19,0,0,1-15.76-8.4,1.4,1.4,0,0,1,0-1.59,19,19,0,0,1,31.52,0,1.4,1.4,0,0,1,0,1.59A19,19,0,0,1,20,29.12Z"
          fill="#c9ffff"/>
    <path d="M20,11.35a18.37,18.37,0,0,1,15.24,8.13.77.77,0,0,1,0,.89,18.35,18.35,0,0,1-30.48,0,.77.77,0,0,1,0-.89A18.37,18.37,0,0,1,20,11.35m0-1.25A19.61,19.61,0,0,0,3.72,18.78a2,2,0,0,0,0,2.29,19.61,19.61,0,0,0,32.56,0,2,2,0,0,0,0-2.29A19.61,19.61,0,0,0,20,10.1Z"
          fill="#9bf7ff"/>
    <path d="M13.3,16a7.66,7.66,0,0,0-1.08,3.88A7.79,7.79,0,0,0,20,27.7V19.91Z" fill="#073042"/>
    <path d="M20,19.91V27.7a7.79,7.79,0,0,0,7.79-7.79A7.66,7.66,0,0,0,26.73,16L20,19.91Z" fill="#4285f4"/>
    <path d="M20,12.12A7.74,7.74,0,0,0,13.3,16L20,19.91h0L26.73,16A7.76,7.76,0,0,0,20,12.12Z" fill="#3ddc84"/>
    <path d="M18,19.08v1.66a.53.53,0,0,0,.28.47l1.43.83a.54.54,0,0,0,.55,0l1.43-.83a.52.52,0,0,0,.27-.47V19.08a.55.55,0,0,0-.27-.47l-1.43-.83a.59.59,0,0,0-.55,0l-1.43.83A.56.56,0,0,0,18,19.08Z"
          fill="#fff"/>
    <g opacity="0.12">
        <path d="M20,13.12a6.79,6.79,0,1,1-6.79,6.79A6.8,6.8,0,0,1,20,13.12m0-1a7.79,7.79,0,1,0,7.79,7.79A7.79,7.79,0,0,0,20,12.12Z"/>
    </g>
</svg>
